<svg width="65" height="23" viewBox="0 0 65 23" fill="none" xmlns="http://www.w3.org/2000/svg">
<path d="M17.0552 13.1397C17.0552 13.6923 17.0232 14.2768 16.9594 14.8932H2.97411C3.08055 16.6148 3.66592 17.9644 4.73025 18.9421C5.81587 19.8985 7.12499 20.3767 8.65762 20.3767C9.91354 20.3767 10.9566 20.0898 11.7867 19.5159C12.6382 18.9208 13.2342 18.1344 13.5748 17.1567H16.7039C16.2356 18.8358 15.299 20.2067 13.8941 21.2694C12.4892 22.3109 10.7437 22.8316 8.65762 22.8316C6.99727 22.8316 5.50722 22.4596 4.18745 21.7157C2.88897 20.9718 1.86721 19.9198 1.12218 18.5595C0.377153 17.178 0.00463867 15.5839 0.00463867 13.7773C0.00463867 11.9707 0.366511 10.3873 1.09025 9.02703C1.81399 7.66678 2.82511 6.62531 4.12359 5.90268C5.44336 5.15877 6.95469 4.78684 8.65762 4.78684C10.318 4.78684 11.7867 5.14816 13.0639 5.8708C14.3411 6.59343 15.3203 7.59238 16.0015 8.86763C16.7039 10.1216 17.0552 11.5456 17.0552 13.1397ZM14.0538 12.534C14.0538 11.4288 13.809 10.4829 13.3194 9.69654C12.8298 8.88887 12.1593 8.28313 11.3078 7.87931C10.4776 7.45422 9.55166 7.24169 8.5299 7.24169C7.06113 7.24169 5.80522 7.70927 4.76218 8.64446C3.74043 9.57965 3.15504 10.8761 3.00604 12.534H14.0538ZM46.6258 0.164062L40.7827 22.5447H34.1732L30.5971 7.81555L26.8932 22.5447H20.2838L14.6003 0.164062H20.4435L23.6683 16.4553L27.6595 0.164062H33.6623L37.4939 16.4553L40.7507 0.164062H46.6258ZM53.1318 0.164062C55.4946 0.164062 57.5595 0.631653 59.3264 1.56683C61.093 2.50202 62.4553 3.81976 63.4132 5.5201C64.3925 7.19917 64.8819 9.14392 64.8819 11.3544C64.8819 13.5435 64.3925 15.4883 63.4132 17.1886C62.4553 18.889 61.0823 20.2067 59.2942 21.1419C57.5276 22.0771 55.4734 22.5447 53.1318 22.5447H44.7342V0.164062H53.1318ZM52.7805 17.8262C54.8455 17.8262 56.4525 17.263 57.6019 16.1365C58.7516 15.0101 59.3264 13.416 59.3264 11.3544C59.3264 9.29272 58.7516 7.68802 57.6019 6.5403C56.4525 5.39258 54.8455 4.81872 52.7805 4.81872H50.1942V17.8262H52.7805Z" fill="white"/>
</svg>
